 <svg  version="1.0" xmlns="http://www.w3.org/2000/svg"  width="900.000000pt" height="120.000000pt" viewBox="0 0 900.000000 120.000000"  preserveAspectRatio="xMidYMid meet">  <g transform="translate(0.000000,120.000000) scale(0.100000,-0.100000)" fill="#ff0000" stroke="none"> <path d="M1183 1141 c-24 -9 -48 -22 -55 -29 -7 -7 -18 -12 -24 -12 -18 0 -171 -147 -240 -231 -84 -103 -120 -138 -157 -154 -18 -7 -45 -26 -60 -41 -24 -24 -27 -34 -27 -96 0 -42 -6 -81 -14 -96 -94 -174 -107 -275 -41 -318 51 -34 134 -11 177 48 48 66 118 196 118 222 1 6 9 21 19 34 32 38 153 27 220 -20 47 -33 61 -68 61 -148 0 -128 46 -179 146 -165 73 10 109 71 138 231 32 179 13 547 -32 631 -7 12 -12 30 -12 41 0 11 -22 43 -48 71 -43 45 -52 51 -88 50 -21 -1 -58 -9 -81 -18z m37 -371 c0 -71 -4 -121 -10 -125 -6 -4 -28 2 -49 14 -22 11 -54 23 -73 26 -46 9 -71 29 -64 52 4 10 40 53 81 96 66 69 76 77 95 67 18 -10 20 -20 20 -130z"/> <path d="M170 1134 c-90 -21 -138 -94 -106 -161 18 -37 65 -63 114 -63 54 0 63 -34 32 -120 -7 -19 -18 -51 -25 -70 -7 -19 -18 -51 -24 -70 -7 -19 -16 -48 -21 -65 -8 -28 -15 -49 -45 -135 -37 -105 -75 -228 -75 -246 0 -11 12 -31 26 -45 22 -21 35 -24 94 -24 60 0 72 3 92 25 25 27 46 62 59 100 4 14 24 70 44 125 20 55 40 114 45 130 4 17 18 55 30 85 12 30 25 69 30 85 4 17 12 41 18 55 5 14 20 50 32 80 13 30 28 58 34 62 6 4 39 8 73 8 38 0 82 8 115 21 45 17 57 27 66 54 11 27 10 41 -5 80 -26 70 -65 81 -319 90 -110 4 -206 8 -214 10 -8 1 -40 -3 -70 -11z"/> <path d="M2765 1115 c-46 -25 -66 -46 -86 -90 -19 -44 -16 -79 9 -113 14 -17 30 -23 81 -27 35 -2 66 -7 70 -10 11 -12 5 -82 -10 -121 -9 -21 -24 -66 -34 -99 -9 -33 -23 -76 -30 -95 -20 -58 -43 -133 -50 -167 -4 -18 -11 -35 -16 -38 -5 -4 -9 -17 -9 -29 0 -13 -7 -40 -15 -59 -39 -93 -2 -157 90 -157 88 0 133 48 177 190 11 36 26 81 33 100 7 19 21 62 30 95 10 33 22 71 27 85 11 27 34 105 48 160 5 19 15 53 23 75 l15 40 103 3 c95 3 106 5 130 28 32 31 46 107 27 149 -21 46 -61 59 -203 68 -242 15 -260 16 -320 22 -45 5 -67 2 -90 -10z"/> <path d="M2095 1110 c-11 -5 -42 -9 -68 -9 -54 -1 -180 -56 -215 -94 -11 -12 -35 -51 -53 -87 -70 -138 -31 -277 91 -326 18 -7 73 -27 120 -43 19 -7 49 -16 67 -21 44 -11 93 -48 93 -70 0 -63 -35 -89 -130 -95 -252 -19 -231 -20 -277 14 -67 49 -114 38 -155 -36 -24 -42 -24 -150 0 -180 32 -40 99 -53 272 -53 262 0 375 38 493 164 67 72 90 129 91 226 1 72 -2 91 -22 121 -30 49 -75 82 -142 103 -30 10 -68 24 -85 31 -16 7 -41 16 -55 19 -38 8 -90 44 -90 61 0 30 40 38 169 32 103 -4 134 -9 169 -27 71 -37 125 -16 151 59 23 71 5 142 -45 176 -23 16 -55 22 -149 27 -66 4 -140 10 -165 12 -25 3 -54 1 -65 -4z"/> <path d="M3655 1085 c-5 -2 -29 -9 -53 -15 -31 -8 -50 -21 -71 -50 -26 -37 -29 -46 -28 -129 l0 -89 -47 -54 -48 -53 5 -67 c5 -78 -2 -120 -33 -198 -12 -30 -25 -69 -29 -85 -4 -17 -13 -40 -19 -52 -6 -11 -12 -46 -13 -77 -4 -106 36 -120 392 -132 200 -7 224 -2 274 49 49 51 47 143 -4 168 -15 7 -98 17 -191 23 l-165 11 -3 28 c-3 25 18 106 38 147 9 19 170 26 242 11 59 -13 143 2 174 31 35 31 59 95 48 125 -18 52 -47 62 -199 69 -77 4 -146 11 -152 17 -7 5 -13 20 -13 32 0 45 18 49 195 41 144 -6 169 -4 198 10 60 31 94 98 77 150 -21 61 -55 73 -256 84 -180 10 -300 12 -319 5z"/> <path d="M4495 1053 c-58 -35 -64 -50 -65 -152 0 -100 -14 -139 -65 -179 -27 -21 -45 -78 -34 -107 12 -32 10 -76 -6 -125 -8 -25 -28 -85 -44 -135 -26 -80 -36 -146 -32 -212 2 -39 53 -55 201 -65 74 -5 155 -11 180 -13 25 -1 71 -6 102 -10 70 -9 144 14 186 58 22 23 27 37 27 79 0 74 -24 91 -165 113 -70 10 -133 14 -165 10 -83 -10 -91 16 -44 147 23 62 40 72 92 57 18 -5 85 -12 151 -16 112 -6 121 -5 161 17 90 49 101 173 18 201 -18 5 -94 13 -170 17 l-138 7 -3 31 c-2 17 3 36 10 42 8 6 88 12 210 14 l196 3 39 31 c31 25 39 39 41 70 2 33 -2 44 -30 70 -51 48 -97 56 -373 60 -227 4 -253 3 -280 -13z"/> <path d="M6145 1051 c-117 -32 -159 -91 -135 -192 13 -51 10 -93 -8 -144 -11 -30 -60 -206 -89 -320 -8 -33 -22 -77 -29 -98 -20 -55 -18 -73 20 -130 47 -70 72 -96 101 -103 14 -3 96 -4 182 -1 247 9 311 26 393 107 82 81 105 133 105 245 0 86 -2 92 -33 138 -37 53 -36 75 3 101 58 38 115 158 118 244 l2 64 -44 38 c-47 41 -49 41 -236 59 -147 14 -281 11 -350 -8z m336 -221 c24 -14 24 -31 -1 -63 -24 -30 -103 -45 -160 -30 -43 11 -53 50 -21 82 17 17 34 21 92 21 39 0 79 -5 90 -10z m-181 -318 c70 -22 110 -49 110 -73 0 -11 5 -28 12 -38 14 -23 -5 -76 -30 -86 -10 -4 -62 -9 -116 -12 -87 -5 -101 -4 -112 11 -9 13 -10 25 -3 43 5 13 9 38 9 54 0 31 40 103 62 112 7 3 13 6 13 6 0 0 25 -7 55 -17z"/> <path d="M7052 1050 c-33 -21 -71 -87 -72 -125 0 -11 -6 -40 -14 -65 -8 -25 -22 -81 -31 -125 -9 -44 -23 -101 -31 -126 -8 -26 -14 -57 -14 -70 0 -13 -6 -44 -14 -69 -14 -44 -22 -74 -53 -210 -33 -142 -27 -164 56 -194 48 -17 50 -17 88 2 82 43 105 88 148 297 9 44 23 107 30 140 7 33 20 96 30 140 9 44 21 98 27 120 44 176 42 257 -7 289 -34 22 -103 20 -143 -4z"/> <path d="M7448 1051 c-64 -30 -95 -85 -83 -147 7 -40 49 -63 130 -73 l50 -6 -1 -55 c-1 -30 -7 -75 -14 -100 -17 -65 -36 -144 -55 -235 -9 -44 -22 -109 -30 -145 -31 -147 -29 -193 12 -224 35 -26 110 -26 154 2 37 22 89 107 89 144 0 13 6 43 14 68 14 44 31 121 46 210 7 42 12 64 41 188 7 26 14 63 17 82 6 53 34 70 116 70 106 0 156 38 156 117 0 30 -7 46 -29 67 -27 26 -35 28 -167 36 -324 20 -406 20 -446 1z"/> <path d="M8310 1033 c-31 -10 -66 -29 -85 -46 -18 -16 -20 -31 -20 -125 -1 -117 -10 -149 -55 -195 -33 -33 -34 -40 -30 -170 1 -56 -3 -104 -13 -135 -28 -87 -41 -147 -45 -207 -3 -53 -1 -63 20 -81 44 -41 135 -54 376 -54 191 0 226 2 255 17 50 26 71 59 71 115 1 39 -4 52 -27 75 l-27 28 -175 3 c-140 3 -176 6 -186 18 -13 15 -12 21 18 144 12 49 14 50 208 50 170 0 184 1 209 21 51 40 71 126 38 164 -39 47 -50 50 -206 55 l-151 5 0 40 0 40 170 5 c170 6 208 13 255 52 25 20 50 61 50 79 0 31 -47 76 -92 87 -44 11 -531 24 -558 15z"/> </g> </svg> 